<?xml version="1.0" encoding="utf-8"?>
<!-- Generator: Adobe Illustrator 24.2.0, SVG Export Plug-In . SVG Version: 6.00 Build 0)  -->
<svg version="1.1" id="svg4" xmlns:svg="http://www.w3.org/2000/svg"
	 xmlns="http://www.w3.org/2000/svg" xmlns:xlink="http://www.w3.org/1999/xlink" x="0px" y="0px" viewBox="0 0 512 512"
	 style="enable-background:new 0 0 512 512;" xml:space="preserve">
<style type="text/css">
	.st0{fill:#D37E28;stroke:#231F20;stroke-width:8;stroke-miterlimit:10;enable-background:new    ;}
</style>
<path id="path2" class="st0" d="M273.3,74.4c9.5,4.3,15.6,13.7,15.6,24.2v318c0,10.4-6.1,19.9-15.6,24.2c-9.5,4.3-20.7,2.6-28.5-4.4
	l-111.7-99.3H77c-29.2,0-53-23.8-53-53v-53c0-29.2,23.8-53,53-53h56.1l111.7-99.3C252.6,71.9,263.8,70.2,273.3,74.4z M361,183.9
	l45.5,45.5l45.5-45.5c7.8-7.8,20.4-7.8,28.1,0c7.7,7.8,7.8,20.4,0,28.1l-45.5,45.5l45.5,45.5c7.8,7.8,7.8,20.4,0,28.1
	c-7.8,7.7-20.4,7.8-28.1,0l-45.5-45.5L361,331.1c-7.8,7.8-20.4,7.8-28.1,0c-7.7-7.8-7.8-20.4,0-28.1l45.5-45.5L332.9,212
	c-7.8-7.8-7.8-20.4,0-28.1C340.7,176.2,353.3,176.1,361,183.9z"/>
</svg>
