<?xml version="1.0" encoding="utf-8"?>
<!-- Generator: Adobe Illustrator 24.2.0, SVG Export Plug-In . SVG Version: 6.00 Build 0)  -->
<svg version="1.1" id="svg4" xmlns:svg="http://www.w3.org/2000/svg"
	 xmlns="http://www.w3.org/2000/svg" xmlns:xlink="http://www.w3.org/1999/xlink" x="0px" y="0px" viewBox="0 0 512 512"
	 style="enable-background:new 0 0 512 512;" xml:space="preserve">
<style type="text/css">
	.st0{fill:#1DB24B;stroke:#231F20;stroke-width:6;stroke-miterlimit:10;enable-background:new    ;}
</style>
<path id="path2" class="st0" d="M435.2,109.5c40.7,33.2,66.8,83.8,66.8,140.4s-26.1,107.2-66.8,140.4c-9.7,7.9-23.9,6.4-31.9-3.3
	c-7.9-9.7-6.4-23.9,3.3-31.9c30.6-24.9,50.1-62.8,50.1-105.3s-19.5-80.4-50.1-105.3c-9.7-7.9-11.1-22.1-3.3-31.9
	C411.2,103,425.5,101.6,435.2,109.5L435.2,109.5z M381,179.7c20.3,16.6,33.4,41.8,33.4,70.2s-13.1,53.6-33.4,70.2
	c-9.7,7.9-23.9,6.4-31.8-3.3s-6.4-23.9,3.3-31.9c10.2-8.3,16.7-20.9,16.7-35.1c0-14.1-6.5-26.8-16.7-35.1
	c-9.7-7.9-11.1-22.1-3.3-31.9C357,173.2,371.3,171.8,381,179.7L381,179.7z M295.7,41.5c10.8,4.9,17.8,15.6,17.8,27.5v361.8
	c0,11.9-7,22.6-17.8,27.5c-10.8,4.9-23.6,2.9-32.4-5l-127.1-113H72.3c-33.3,0-60.3-27-60.3-60.3v-60.3c0-33.3,27-60.3,60.3-60.3
	h63.9l127.1-113C272.2,38.6,284.9,36.7,295.7,41.5z"/>
</svg>
